<svg xmlns="http://www.w3.org/2000/svg" width="980" height="620" viewBox="0 0 980 620" role="img" aria-label="Dashboard placeholder">
  <defs>
    <linearGradient id="bg" x1="0" x2="1" y1="0" y2="1">
      <stop offset="0%" stop-color="#0f1f57"/>
      <stop offset="100%" stop-color="#0a1232"/>
    </linearGradient>
    <linearGradient id="line" x1="0" x2="1" y1="0" y2="0">
      <stop offset="0%" stop-color="#6bffcf"/>
      <stop offset="100%" stop-color="#6aa3ff"/>
    </linearGradient>
  </defs>
  <rect width="980" height="620" rx="26" fill="url(#bg)"/>
  <rect x="36" y="36" width="280" height="548" rx="14" fill="#0b153f"/>
  <rect x="336" y="36" width="608" height="260" rx="14" fill="#0b153f"/>
  <rect x="336" y="314" width="295" height="270" rx="14" fill="#0b153f"/>
  <rect x="649" y="314" width="295" height="270" rx="14" fill="#0b153f"/>
  <g stroke="#1e2c69" stroke-width="1">
    <path d="M370 252H910"/><path d="M370 220H910"/><path d="M370 188H910"/><path d="M370 156H910"/>
  </g>
  <polyline points="370,230 430,212 490,220 550,174 610,182 670,140 730,150 790,106 850,128 910,92" fill="none" stroke="url(#line)" stroke-width="5" stroke-linecap="round"/>
  <text x="64" y="90" fill="#98ade8" font-family="Arial, sans-serif" font-size="26">Portfolio</text>
  <text x="370" y="92" fill="#98ade8" font-family="Arial, sans-serif" font-size="26">Market Overview</text>
  <text x="370" y="354" fill="#98ade8" font-family="Arial, sans-serif" font-size="22">Latency</text>
  <text x="680" y="354" fill="#98ade8" font-family="Arial, sans-serif" font-size="22">Bandwidth</text>
</svg>